<?xml version="1.0" standalone="no"?>
<!DOCTYPE svg PUBLIC "-//W3C//DTD SVG 20010904//EN"
 "http://www.w3.org/TR/2001/REC-SVG-20010904/DTD/svg10.dtd">
<svg version="1.0" xmlns="http://www.w3.org/2000/svg"
 width="191.000000pt" height="191.000000pt" viewBox="0 0 191.000000 191.000000"
 preserveAspectRatio="xMidYMid meet">
<metadata>
Created by potrace 1.14, written by Peter Selinger 2001-2017
</metadata>
<g transform="translate(0.000000,191.000000) scale(0.100000,-0.100000)"
fill="#000000" stroke="none">
<path d="M890 1881 c-99 -53 -737 -425 -752 -438 -17 -15 -18 -51 -18 -483 0
-357 3 -470 12 -483 21 -26 793 -467 819 -467 27 0 797 441 817 467 9 13 12
126 12 483 l0 467 -22 20 c-13 11 -192 117 -399 236 -254 147 -386 217 -405
217 -16 0 -45 -8 -64 -19z m250 -129 l185 -108 3 -216 2 -215 -52 -28 -53 -27
-132 76 c-73 42 -137 76 -144 76 -6 0 -70 -35 -142 -77 l-130 -77 -46 26 -46
25 -3 219 -2 220 182 106 c101 58 185 107 188 107 3 0 88 -48 190 -107z m-537
-629 l37 -23 0 -163 0 -162 141 -79 140 -79 -3 -55 -3 -56 -185 -107 -185
-107 -40 23 c-22 13 -105 61 -185 107 l-145 84 0 219 0 219 185 107 c102 59
190 104 195 101 6 -3 27 -16 48 -29z m995 -103 l131 -75 0 -220 0 -220 -131
-75 c-73 -41 -157 -89 -187 -106 l-56 -32 -185 108 -185 108 -3 53 -2 54 137
80 138 80 5 165 5 164 45 27 45 26 56 -31 c30 -17 114 -65 187 -106z"/>
</g>
</svg>
